<svg width="236" height="70" viewBox="0 0 236 70" fill="none" xmlns="http://www.w3.org/2000/svg">
<g opacity="0.04">
<path d="M18.4909 36.5C18.4909 35.6716 17.801 35 16.95 35C16.099 35 15.4091 35.6716 15.4091 36.5V58.5C15.4091 59.3284 16.099 60 16.95 60C17.801 60 18.4909 59.3284 18.4909 58.5V36.5Z" fill="#007AFF"/>
<path d="M31.8455 31.5C31.8455 30.6716 31.1556 30 30.3046 30C29.4535 30 28.7636 30.6716 28.7636 31.5V58.5C28.7636 59.3284 29.4535 60 30.3046 60C31.1556 60 31.8455 59.3284 31.8455 58.5V31.5Z" fill="#007AFF"/>
<path d="M45.2 38.5C45.2 37.6716 44.5101 37 43.6591 37C42.8081 37 42.1182 37.6716 42.1182 38.5V58.5C42.1182 59.3284 42.8081 60 43.6591 60C44.5101 60 45.2 59.3284 45.2 58.5V38.5Z" fill="#007AFF"/>
<path d="M58.5545 28.5C58.5545 27.6716 57.8646 27 57.0136 27C56.1626 27 55.4727 27.6716 55.4727 28.5V58.5C55.4727 59.3284 56.1626 60 57.0136 60C57.8646 60 58.5545 59.3284 58.5545 58.5V28.5Z" fill="#007AFF"/>
<path d="M71.9091 34.5C71.9091 33.6716 71.2192 33 70.3682 33C69.5172 33 68.8273 33.6716 68.8273 34.5V58.5C68.8273 59.3284 69.5172 60 70.3682 60C71.2192 60 71.9091 59.3284 71.9091 58.5V34.5Z" fill="#007AFF"/>
<path d="M85.2636 26.5C85.2636 25.6716 84.5738 25 83.7227 25C82.8717 25 82.1818 25.6716 82.1818 26.5V58.5C82.1818 59.3284 82.8717 60 83.7227 60C84.5738 60 85.2636 59.3284 85.2636 58.5V26.5Z" fill="#007AFF"/>
<path d="M98.6182 32.5C98.6182 31.6716 97.9283 31 97.0773 31C96.2263 31 95.5364 31.6716 95.5364 32.5V58.5C95.5364 59.3284 96.2263 60 97.0773 60C97.9283 60 98.6182 59.3284 98.6182 58.5V32.5Z" fill="#007AFF"/>
<path d="M111.973 29.5C111.973 28.6716 111.283 28 110.432 28C109.581 28 108.891 28.6716 108.891 29.5V58.5C108.891 59.3284 109.581 60 110.432 60C111.283 60 111.973 59.3284 111.973 58.5V29.5Z" fill="#007AFF"/>
<path d="M125.327 35.5C125.327 34.6716 124.637 34 123.786 34C122.935 34 122.245 34.6716 122.245 35.5V58.5C122.245 59.3284 122.935 60 123.786 60C124.637 60 125.327 59.3284 125.327 58.5V35.5Z" fill="#007AFF"/>
<path d="M138.682 27.5C138.682 26.6716 137.992 26 137.141 26C136.29 26 135.6 26.6716 135.6 27.5V58.5C135.6 59.3284 136.29 60 137.141 60C137.992 60 138.682 59.3284 138.682 58.5V27.5Z" fill="#007AFF"/>
<path d="M152.036 33.5C152.036 32.6716 151.346 32 150.495 32C149.644 32 148.955 32.6716 148.955 33.5V58.5C148.955 59.3284 149.644 60 150.495 60C151.346 60 152.036 59.3284 152.036 58.5V33.5Z" fill="#007AFF"/>
<path d="M165.391 30.5C165.391 29.6716 164.701 29 163.85 29C162.999 29 162.309 29.6716 162.309 30.5V58.5C162.309 59.3284 162.999 60 163.85 60C164.701 60 165.391 59.3284 165.391 58.5V30.5Z" fill="#007AFF"/>
<path d="M178.745 36.5C178.745 35.6716 178.056 35 177.205 35C176.354 35 175.664 35.6716 175.664 36.5V58.5C175.664 59.3284 176.354 60 177.205 60C178.056 60 178.745 59.3284 178.745 58.5V36.5Z" fill="#007AFF"/>
<path d="M192.1 28.5C192.1 27.6716 191.41 27 190.559 27C189.708 27 189.018 27.6716 189.018 28.5V58.5C189.018 59.3284 189.708 60 190.559 60C191.41 60 192.1 59.3284 192.1 58.5V28.5Z" fill="#007AFF"/>
<path d="M205.455 32.5C205.455 31.6716 204.765 31 203.914 31C203.063 31 202.373 31.6716 202.373 32.5V58.5C202.373 59.3284 203.063 60 203.914 60C204.765 60 205.455 59.3284 205.455 58.5V32.5Z" fill="#007AFF"/>
</g>
<path opacity="0.12" d="M10.2727 50C30.8182 43.3333 51.3636 41.6667 71.9091 45C92.4546 39.6667 113 39 133.545 43C154.091 37.6667 174.636 36.6667 195.182 40C205.455 35.3333 214.015 32 220.864 30" stroke="url(#paint0_linear_4_105)" stroke-width="2" stroke-linecap="round" stroke-linejoin="round"/>
<g opacity="0.06">
<path d="M23.6273 36.5C23.6273 35.6716 22.9374 35 22.0863 35C21.2353 35 20.5454 35.6716 20.5454 36.5V58.5C20.5454 59.3284 21.2353 60 22.0863 60C22.9374 60 23.6273 59.3284 23.6273 58.5V36.5Z" fill="#007AFF"/>
<path d="M33.9 31.5C33.9 30.6716 33.2101 30 32.3591 30C31.508 30 30.8182 30.6716 30.8182 31.5V58.5C30.8182 59.3284 31.508 60 32.3591 60C33.2101 60 33.9 59.3284 33.9 58.5V31.5Z" fill="#007AFF"/>
<path d="M44.1727 38.5C44.1727 37.6716 43.4828 37 42.6318 37C41.7808 37 41.0909 37.6716 41.0909 38.5V58.5C41.0909 59.3284 41.7808 60 42.6318 60C43.4828 60 44.1727 59.3284 44.1727 58.5V38.5Z" fill="#007AFF"/>
<path d="M54.4454 28.5C54.4454 27.6716 53.7555 27 52.9045 27C52.0535 27 51.3636 27.6716 51.3636 28.5V58.5C51.3636 59.3284 52.0535 60 52.9045 60C53.7555 60 54.4454 59.3284 54.4454 58.5V28.5Z" fill="#007AFF"/>
<path d="M64.7182 34.5C64.7182 33.6716 64.0283 33 63.1773 33C62.3262 33 61.6364 33.6716 61.6364 34.5V58.5C61.6364 59.3284 62.3262 60 63.1773 60C64.0283 60 64.7182 59.3284 64.7182 58.5V34.5Z" fill="#007AFF"/>
<path d="M74.9909 26.5C74.9909 25.6716 74.301 25 73.45 25C72.599 25 71.9091 25.6716 71.9091 26.5V58.5C71.9091 59.3284 72.599 60 73.45 60C74.301 60 74.9909 59.3284 74.9909 58.5V26.5Z" fill="#007AFF"/>
</g>
<g opacity="0.85" filter="url(#filter0_f_4_105)">
<path d="M20.5454 50C30.8182 40 41.0909 37.6667 51.3636 43C61.6363 36.3333 71.9091 32 82.1818 30" stroke="url(#paint1_linear_4_105)" stroke-width="2.5" stroke-linecap="round" stroke-linejoin="round"/>
</g>
<g filter="url(#filter1_f_4_105)">
<path d="M20.5454 53C22.2475 53 23.6273 51.6569 23.6273 50C23.6273 48.3431 22.2475 47 20.5454 47C18.8434 47 17.4636 48.3431 17.4636 50C17.4636 51.6569 18.8434 53 20.5454 53Z" fill="url(#paint2_linear_4_105)"/>
<path d="M51.3636 46C53.0657 46 54.4454 44.6569 54.4454 43C54.4454 41.3431 53.0657 40 51.3636 40C49.6616 40 48.2818 41.3431 48.2818 43C48.2818 44.6569 49.6616 46 51.3636 46Z" fill="url(#paint3_linear_4_105)"/>
<path d="M82.1818 34C84.4512 34 86.2909 32.2091 86.2909 30C86.2909 27.7909 84.4512 26 82.1818 26C79.9124 26 78.0727 27.7909 78.0727 30C78.0727 32.2091 79.9124 34 82.1818 34Z" fill="url(#paint4_linear_4_105)"/>
</g>
<g opacity="0.85">
<path d="M82.1818 25L79.1 29H80.6409V33H83.7227V29H85.2636L82.1818 25Z" fill="url(#paint5_linear_4_105)"/>
</g>
<path opacity="0.12" d="M113 53C123.212 53 131.491 44.9411 131.491 35C131.491 25.0589 123.212 17 113 17C102.788 17 94.5091 25.0589 94.5091 35C94.5091 44.9411 102.788 53 113 53Z" stroke="#007AFF"/>
<path opacity="0.2" d="M113 48C120.376 48 126.355 42.1797 126.355 35C126.355 27.8203 120.376 22 113 22C105.624 22 99.6454 27.8203 99.6454 35C99.6454 42.1797 105.624 48 113 48Z" stroke="#007AFF"/>
<g opacity="0.9">
<path d="M113 38C114.702 38 116.082 36.6569 116.082 35C116.082 33.3431 114.702 32 113 32C111.298 32 109.918 33.3431 109.918 35C109.918 36.6569 111.298 38 113 38Z" fill="url(#paint6_linear_4_105)"/>
<path d="M104.782 32C105.917 32 106.836 31.1046 106.836 30C106.836 28.8954 105.917 28 104.782 28C103.647 28 102.727 28.8954 102.727 30C102.727 31.1046 103.647 32 104.782 32Z" fill="url(#paint7_linear_4_105)"/>
<path d="M121.218 32C122.353 32 123.273 31.1046 123.273 30C123.273 28.8954 122.353 28 121.218 28C120.083 28 119.164 28.8954 119.164 30C119.164 31.1046 120.083 32 121.218 32Z" fill="url(#paint8_linear_4_105)"/>
<path d="M104.782 42C105.917 42 106.836 41.1046 106.836 40C106.836 38.8954 105.917 38 104.782 38C103.647 38 102.727 38.8954 102.727 40C102.727 41.1046 103.647 42 104.782 42Z" fill="url(#paint9_linear_4_105)"/>
<path d="M121.218 42C122.353 42 123.273 41.1046 123.273 40C123.273 38.8954 122.353 38 121.218 38C120.083 38 119.164 38.8954 119.164 40C119.164 41.1046 120.083 42 121.218 42Z" fill="url(#paint10_linear_4_105)"/>
<path opacity="0.35" d="M113 35L104.782 30" stroke="url(#paint11_linear_4_105)"/>
<path opacity="0.35" d="M113 35L121.218 30" stroke="url(#paint12_linear_4_105)"/>
<path opacity="0.35" d="M113 35L104.782 40" stroke="url(#paint13_linear_4_105)"/>
<path opacity="0.35" d="M113 35L121.218 40" stroke="url(#paint14_linear_4_105)"/>
</g>
<path d="M161.695 39C161.284 39 160.911 38.972 160.575 38.916C160.257 38.86 159.949 38.748 159.651 38.58C159.371 38.3933 159.072 38.1133 158.755 37.74L155.535 33.736L149.179 26.12H155.227L158.699 30.712L164.551 37.432C164.868 37.8053 165.139 38.1227 165.363 38.384C165.587 38.6453 165.811 38.8507 166.035 39H161.695ZM151.503 39L148.843 38.972C149.16 38.748 149.477 38.468 149.795 38.132C150.131 37.7773 150.429 37.4693 150.691 37.208L155.983 31.468L160.911 26.12H165.083L158.363 33.288L154.219 37.992C153.901 38.328 153.547 38.5893 153.155 38.776C152.763 38.944 152.212 39.0187 151.503 39ZM167.529 39C167.529 37.1893 167.52 35.3787 167.501 33.568C167.501 31.7573 167.501 29.9467 167.501 28.136C167.501 27.4267 167.622 26.9133 167.865 26.596C168.108 26.2787 168.602 26.12 169.349 26.12C170.32 26.12 171.318 26.12 172.345 26.12C173.39 26.1013 174.426 26.1013 175.453 26.12C176.48 26.12 177.469 26.12 178.421 26.12C179.28 26.1387 180.036 26.2787 180.689 26.54C181.361 26.7827 181.893 27.2027 182.285 27.8C182.677 28.3973 182.873 29.2093 182.873 30.236C182.873 31.356 182.686 32.2613 182.313 32.952C181.958 33.624 181.454 34.1093 180.801 34.408C180.148 34.688 179.392 34.828 178.533 34.828C177.413 34.8093 176.256 34.8 175.061 34.8C173.866 34.8 172.718 34.8 171.617 34.8C171.617 34.1093 171.617 33.6053 171.617 33.288C171.617 32.952 171.664 32.7373 171.757 32.644C171.85 32.532 172.018 32.476 172.261 32.476C172.653 32.476 173.092 32.476 173.577 32.476C174.062 32.476 174.566 32.476 175.089 32.476C175.612 32.476 176.106 32.476 176.573 32.476C176.909 32.476 177.198 32.4107 177.441 32.28C177.684 32.1307 177.87 31.8973 178.001 31.58C178.15 31.2627 178.225 30.852 178.225 30.348C178.225 29.7507 178.113 29.312 177.889 29.032C177.684 28.7333 177.338 28.5653 176.853 28.528C176.349 28.5093 175.854 28.5 175.369 28.5C174.902 28.5 174.436 28.5 173.969 28.5C173.502 28.5 173.064 28.5093 172.653 28.528C172.541 28.528 172.42 28.5747 172.289 28.668C172.158 28.7613 172.093 28.8827 172.093 29.032C172.093 30.6933 172.093 32.3547 172.093 34.016C172.093 35.6587 172.093 37.32 172.093 39H167.529ZM184.718 35.948C185.185 36.1533 185.782 36.312 186.51 36.424C187.238 36.5173 187.994 36.5733 188.778 36.592C189.562 36.6107 190.253 36.62 190.85 36.62C191.074 36.62 191.354 36.62 191.69 36.62C192.045 36.62 192.334 36.6107 192.558 36.592C193.062 36.592 193.492 36.5453 193.846 36.452C194.201 36.34 194.462 36.172 194.63 35.948C194.817 35.724 194.91 35.4067 194.91 34.996C194.91 34.5107 194.77 34.1933 194.49 34.044C194.21 33.876 193.781 33.792 193.202 33.792C192.997 33.792 192.754 33.792 192.474 33.792C192.213 33.792 191.877 33.792 191.466 33.792C191.056 33.792 190.524 33.792 189.87 33.792C189.273 33.792 188.666 33.764 188.05 33.708C187.453 33.652 186.912 33.5213 186.426 33.316C185.941 33.092 185.549 32.7467 185.25 32.28C184.97 31.7947 184.83 31.132 184.83 30.292C184.83 29.284 184.998 28.5 185.334 27.94C185.689 27.3613 186.174 26.932 186.79 26.652C187.425 26.372 188.172 26.1947 189.03 26.12C189.908 26.0453 190.869 26.008 191.914 26.008C192.549 26.008 193.23 26.0173 193.958 26.036C194.705 26.0547 195.396 26.0827 196.03 26.12C196.684 26.1573 197.188 26.2227 197.542 26.316C198.177 26.3533 198.662 26.5213 198.998 26.82C199.353 27.1187 199.53 27.492 199.53 27.94C199.53 28.0147 199.53 28.1453 199.53 28.332C199.53 28.5 199.53 28.668 199.53 28.836C199.53 29.004 199.53 29.0973 199.53 29.116C199.381 28.9853 199.101 28.8827 198.69 28.808C198.298 28.7147 197.832 28.6493 197.29 28.612C196.768 28.5747 196.245 28.5467 195.722 28.528C195.218 28.5093 194.77 28.5 194.378 28.5H191.858C191.354 28.5 190.925 28.5467 190.57 28.64C190.234 28.7147 189.982 28.8547 189.814 29.06C189.646 29.2653 189.562 29.5547 189.562 29.928C189.562 30.2267 189.618 30.4693 189.73 30.656C189.842 30.824 190.02 30.9453 190.262 31.02C190.505 31.0947 190.822 31.132 191.214 31.132C192.353 31.132 193.268 31.132 193.958 31.132C194.649 31.132 195.097 31.132 195.302 31.132C196.198 31.132 196.982 31.2067 197.654 31.356C198.326 31.5053 198.849 31.8413 199.222 32.364C199.596 32.8867 199.782 33.6893 199.782 34.772C199.782 35.7987 199.577 36.62 199.166 37.236C198.756 37.8333 198.186 38.272 197.458 38.552C196.749 38.832 195.918 39 194.966 39.056C194.07 39.112 193.221 39.14 192.418 39.14C191.616 39.14 190.766 39.14 189.87 39.14C189.124 39.1213 188.433 39.084 187.798 39.028C187.182 38.9907 186.641 38.916 186.174 38.804C185.708 38.6733 185.344 38.5053 185.082 38.3C184.84 38.076 184.718 37.7867 184.718 37.432V35.948Z" fill="#1D1D56"/>
<path d="M149.66 53.5C149.66 52.8937 149.66 52.2873 149.66 51.681C149.66 51.0747 149.66 50.4683 149.66 49.862C149.66 49.7997 149.663 49.7515 149.669 49.7175C149.68 49.6778 149.7 49.6467 149.728 49.624C149.762 49.6013 149.816 49.59 149.89 49.59H150.315V53.5H149.66ZM151.727 53.5V49.9385C151.727 49.7855 151.738 49.6892 151.761 49.6495C151.789 49.6098 151.866 49.59 151.99 49.59H152.56L155.093 52.8285L155.118 52.8455V49.59H155.62C155.614 49.5957 155.609 49.6183 155.603 49.658C155.597 49.692 155.594 49.7317 155.594 49.777C155.594 49.8167 155.594 49.8563 155.594 49.896V53.177C155.594 53.3243 155.575 53.415 155.535 53.449C155.501 53.483 155.424 53.5 155.305 53.5H154.778L152.22 50.236L152.211 50.202V53.5H151.727ZM156.513 49.59H160.38V49.9725H158.774V53.2195C158.774 53.3272 158.759 53.4008 158.731 53.4405C158.708 53.4802 158.646 53.5 158.544 53.5H158.128V49.9725H156.513V49.59ZM161.273 53.5V49.862C161.273 49.76 161.287 49.6892 161.315 49.6495C161.344 49.6098 161.406 49.59 161.502 49.59H164.877V49.964H161.927V51.2645H164.63V51.6385H161.927V53.126H164.877V53.5H161.273ZM166.551 49.59V53.126H169.16V53.5H165.905V49.8705C165.905 49.8082 165.908 49.7572 165.913 49.7175C165.919 49.6778 165.939 49.6467 165.973 49.624C166.007 49.6013 166.061 49.59 166.134 49.59H166.551ZM170.601 49.59V53.126H173.211V53.5H169.955V49.8705C169.955 49.8082 169.958 49.7572 169.964 49.7175C169.97 49.6778 169.989 49.6467 170.023 49.624C170.057 49.6013 170.111 49.59 170.185 49.59H170.601ZM174.006 53.5C174.006 52.8937 174.006 52.2873 174.006 51.681C174.006 51.0747 174.006 50.4683 174.006 49.862C174.006 49.7997 174.009 49.7515 174.015 49.7175C174.026 49.6778 174.046 49.6467 174.074 49.624C174.108 49.6013 174.162 49.59 174.236 49.59H174.661V53.5H174.006ZM177.841 53.5595C177.45 53.5595 177.121 53.5283 176.855 53.466C176.589 53.4037 176.373 53.296 176.209 53.143C176.05 52.9843 175.934 52.7775 175.861 52.5225C175.787 52.2618 175.75 51.9388 175.75 51.5535C175.75 51.1285 175.798 50.7857 175.895 50.525C175.991 50.2587 176.13 50.0547 176.311 49.913C176.498 49.7713 176.725 49.675 176.991 49.624C177.257 49.5673 177.563 49.539 177.909 49.539C178.192 49.539 178.453 49.5475 178.691 49.5645C178.935 49.5758 179.144 49.6013 179.32 49.641C179.433 49.658 179.516 49.6835 179.567 49.7175C179.623 49.7515 179.657 49.7912 179.669 49.8365C179.686 49.8762 179.694 49.9187 179.694 49.964V50.134C179.654 50.1 179.584 50.0717 179.482 50.049C179.38 50.0263 179.261 50.0065 179.125 49.9895C178.994 49.9725 178.858 49.9583 178.717 49.947C178.575 49.93 178.439 49.9215 178.309 49.9215C178.184 49.9158 178.079 49.913 177.994 49.913C177.597 49.913 177.286 49.9612 177.059 50.0575C176.832 50.1538 176.668 50.321 176.566 50.559C176.47 50.7913 176.422 51.1228 176.422 51.5535C176.422 51.9672 176.464 52.293 176.549 52.531C176.64 52.769 176.79 52.939 177 53.041C177.215 53.1373 177.504 53.1855 177.867 53.1855C178.195 53.1855 178.456 53.1543 178.649 53.092C178.841 53.0297 178.983 52.9107 179.074 52.735C179.164 52.5593 179.212 52.3128 179.218 51.9955C179.224 51.9218 179.224 51.8595 179.218 51.8085C179.218 51.7518 179.218 51.7093 179.218 51.681H177.612C177.612 51.579 177.617 51.5025 177.629 51.4515C177.646 51.4005 177.677 51.3637 177.722 51.341C177.773 51.3183 177.85 51.307 177.952 51.307H179.856V51.9785C179.856 52.2845 179.819 52.5395 179.745 52.7435C179.677 52.9418 179.564 53.1033 179.405 53.228C179.252 53.347 179.045 53.432 178.785 53.483C178.53 53.534 178.215 53.5595 177.841 53.5595ZM180.879 53.5V49.862C180.879 49.76 180.893 49.6892 180.922 49.6495C180.95 49.6098 181.012 49.59 181.109 49.59H184.483V49.964H181.534V51.2645H184.237V51.6385H181.534V53.126H184.483V53.5H180.879ZM185.511 53.5V49.9385C185.511 49.7855 185.522 49.6892 185.545 49.6495C185.573 49.6098 185.65 49.59 185.775 49.59H186.344L188.877 52.8285L188.903 52.8455V49.59H189.404C189.398 49.5957 189.393 49.6183 189.387 49.658C189.381 49.692 189.379 49.7317 189.379 49.777C189.379 49.8167 189.379 49.8563 189.379 49.896V53.177C189.379 53.3243 189.359 53.415 189.319 53.449C189.285 53.483 189.209 53.5 189.09 53.5H188.563L186.004 50.236L185.996 50.202V53.5H185.511ZM190.297 49.59H194.164V49.9725H192.558V53.2195C192.558 53.3272 192.544 53.4008 192.515 53.4405C192.493 53.4802 192.43 53.5 192.328 53.5H191.912V49.9725H190.297V49.59ZM201.261 51.579C201.261 52.0437 201.21 52.4092 201.108 52.6755C201.006 52.9362 200.858 53.126 200.666 53.245C200.479 53.364 200.246 53.4405 199.969 53.4745C199.697 53.5028 199.388 53.517 199.042 53.517C198.878 53.517 198.705 53.5142 198.524 53.5085C198.348 53.5085 198.172 53.5085 197.997 53.5085C197.827 53.5085 197.671 53.5057 197.529 53.5C197.393 53.5 197.283 53.5 197.198 53.5V50.134C197.198 49.9527 197.22 49.8195 197.266 49.7345C197.317 49.6495 197.444 49.6013 197.648 49.59C197.739 49.5843 197.858 49.5815 198.005 49.5815C198.152 49.5815 198.308 49.5815 198.473 49.5815C198.643 49.5758 198.807 49.573 198.966 49.573C199.124 49.573 199.257 49.5758 199.365 49.5815C199.677 49.5928 199.949 49.6183 200.181 49.658C200.419 49.6977 200.617 49.7827 200.776 49.913C200.94 50.0433 201.062 50.2417 201.142 50.508C201.221 50.7687 201.261 51.1257 201.261 51.579ZM197.852 53.1345C197.892 53.1345 197.963 53.1373 198.065 53.143C198.172 53.143 198.288 53.143 198.413 53.143C198.538 53.143 198.657 53.1458 198.77 53.1515C198.889 53.1515 198.98 53.1515 199.042 53.1515C199.331 53.1515 199.575 53.1317 199.773 53.092C199.971 53.0523 200.13 52.9787 200.249 52.871C200.374 52.7577 200.462 52.599 200.513 52.395C200.569 52.1853 200.598 51.9133 200.598 51.579C200.598 51.1257 200.549 50.7828 200.453 50.5505C200.362 50.3125 200.207 50.151 199.986 50.066C199.77 49.981 199.467 49.9385 199.076 49.9385C198.997 49.9385 198.883 49.9385 198.736 49.9385C198.594 49.9385 198.453 49.9413 198.311 49.947C198.169 49.947 198.059 49.9527 197.98 49.964C197.94 49.9867 197.909 50.0178 197.886 50.0575C197.863 50.0915 197.852 50.1623 197.852 50.27V53.1345ZM201.784 53.5L202.915 50.1595C202.983 49.9668 203.076 49.8195 203.195 49.7175C203.314 49.6098 203.518 49.556 203.807 49.556C204.068 49.556 204.26 49.6042 204.385 49.7005C204.51 49.7968 204.609 49.9498 204.683 50.1595L205.839 53.5H205.133L204.768 52.4205H202.643L202.294 53.5H201.784ZM202.753 52.123H204.649L204.088 50.4145C204.059 50.3295 204.022 50.2558 203.977 50.1935C203.932 50.1255 203.841 50.0915 203.705 50.0915C203.552 50.0915 203.45 50.1255 203.399 50.1935C203.354 50.2615 203.32 50.3352 203.297 50.4145L202.753 52.123ZM205.595 49.59H209.463V49.9725H207.856V53.2195C207.856 53.3272 207.842 53.4008 207.814 53.4405C207.791 53.4802 207.729 53.5 207.627 53.5H207.21V49.9725H205.595V49.59ZM209.23 53.5L210.36 50.1595C210.428 49.9668 210.522 49.8195 210.641 49.7175C210.76 49.6098 210.964 49.556 211.253 49.556C211.514 49.556 211.706 49.6042 211.831 49.7005C211.956 49.7968 212.055 49.9498 212.128 50.1595L213.284 53.5H212.579L212.213 52.4205H210.088L209.74 53.5H209.23ZM210.199 52.123H212.094L211.533 50.4145C211.505 50.3295 211.468 50.2558 211.423 50.1935C211.378 50.1255 211.287 50.0915 211.151 50.0915C210.998 50.0915 210.896 50.1255 210.845 50.1935C210.8 50.2615 210.766 50.3352 210.743 50.4145L210.199 52.123Z" fill="#86868B"/>
<defs>
<filter id="filter0_f_4_105" x="16.2954" y="25.7498" width="70.1366" height="28.5002" filterUnits="userSpaceOnUse" color-interpolation-filters="sRGB">
<feFlood flood-opacity="0" result="BackgroundImageFix"/>
<feBlend mode="normal" in="SourceGraphic" in2="BackgroundImageFix" result="shape"/>
<feGaussianBlur stdDeviation="1.5" result="effect1_foregroundBlur_4_105"/>
</filter>
<filter id="filter1_f_4_105" x="13.4636" y="22" width="76.8273" height="35" filterUnits="userSpaceOnUse" color-interpolation-filters="sRGB">
<feFlood flood-opacity="0" result="BackgroundImageFix"/>
<feBlend mode="normal" in="SourceGraphic" in2="BackgroundImageFix" result="shape"/>
<feGaussianBlur stdDeviation="2" result="effect1_foregroundBlur_4_105"/>
</filter>
<linearGradient id="paint0_linear_4_105" x1="8.18764e-06" y1="15" x2="0.999646" y2="16.0269" gradientUnits="userSpaceOnUse">
<stop stop-color="#5E5CE6"/>
<stop offset="1" stop-color="#007AFF"/>
</linearGradient>
<linearGradient id="paint1_linear_4_105" x1="15.4091" y1="15" x2="16.4087" y2="16.0269" gradientUnits="userSpaceOnUse">
<stop stop-color="#5E5CE6"/>
<stop offset="1" stop-color="#007AFF"/>
</linearGradient>
<linearGradient id="paint2_linear_4_105" x1="15.4091" y1="15" x2="16.4087" y2="16.0269" gradientUnits="userSpaceOnUse">
<stop stop-color="#00D4FF" stop-opacity="0.8"/>
<stop offset="1" stop-color="#0A84FF" stop-opacity="0.9"/>
</linearGradient>
<linearGradient id="paint3_linear_4_105" x1="15.4091" y1="15" x2="16.4087" y2="16.0269" gradientUnits="userSpaceOnUse">
<stop stop-color="#00D4FF" stop-opacity="0.8"/>
<stop offset="1" stop-color="#0A84FF" stop-opacity="0.9"/>
</linearGradient>
<linearGradient id="paint4_linear_4_105" x1="15.4091" y1="15" x2="16.4087" y2="16.0269" gradientUnits="userSpaceOnUse">
<stop stop-color="#00D4FF" stop-opacity="0.8"/>
<stop offset="1" stop-color="#0A84FF" stop-opacity="0.9"/>
</linearGradient>
<linearGradient id="paint5_linear_4_105" x1="82.1818" y1="25" x2="83.1814" y2="26.0269" gradientUnits="userSpaceOnUse">
<stop stop-color="#007AFF"/>
<stop offset="1" stop-color="#0051D5"/>
</linearGradient>
<linearGradient id="paint6_linear_4_105" x1="113" y1="35" x2="114" y2="36.0269" gradientUnits="userSpaceOnUse">
<stop stop-color="#007AFF"/>
<stop offset="1" stop-color="#0051D5"/>
</linearGradient>
<linearGradient id="paint7_linear_4_105" x1="113" y1="35" x2="114" y2="36.0269" gradientUnits="userSpaceOnUse">
<stop stop-color="#007AFF"/>
<stop offset="1" stop-color="#0051D5"/>
</linearGradient>
<linearGradient id="paint8_linear_4_105" x1="113" y1="35" x2="114" y2="36.0269" gradientUnits="userSpaceOnUse">
<stop stop-color="#007AFF"/>
<stop offset="1" stop-color="#0051D5"/>
</linearGradient>
<linearGradient id="paint9_linear_4_105" x1="113" y1="35" x2="114" y2="36.0269" gradientUnits="userSpaceOnUse">
<stop stop-color="#007AFF"/>
<stop offset="1" stop-color="#0051D5"/>
</linearGradient>
<linearGradient id="paint10_linear_4_105" x1="113" y1="35" x2="114" y2="36.0269" gradientUnits="userSpaceOnUse">
<stop stop-color="#007AFF"/>
<stop offset="1" stop-color="#0051D5"/>
</linearGradient>
<linearGradient id="paint11_linear_4_105" x1="113" y1="35" x2="114" y2="36.0269" gradientUnits="userSpaceOnUse">
<stop stop-color="#007AFF"/>
<stop offset="1" stop-color="#0051D5"/>
</linearGradient>
<linearGradient id="paint12_linear_4_105" x1="113" y1="35" x2="114" y2="36.0269" gradientUnits="userSpaceOnUse">
<stop stop-color="#007AFF"/>
<stop offset="1" stop-color="#0051D5"/>
</linearGradient>
<linearGradient id="paint13_linear_4_105" x1="113" y1="35" x2="114" y2="36.0269" gradientUnits="userSpaceOnUse">
<stop stop-color="#007AFF"/>
<stop offset="1" stop-color="#0051D5"/>
</linearGradient>
<linearGradient id="paint14_linear_4_105" x1="113" y1="35" x2="114" y2="36.0269" gradientUnits="userSpaceOnUse">
<stop stop-color="#007AFF"/>
<stop offset="1" stop-color="#0051D5"/>
</linearGradient>
</defs>
</svg>
